<?xml version="1.0" encoding="UTF-8" standalone="no"?>
<!-- Created with Inkscape (http://www.inkscape.org/) -->

<svg
   xmlns:dc="http://purl.org/dc/elements/1.1/"
   xmlns:cc="http://creativecommons.org/ns#"
   xmlns:rdf="http://www.w3.org/1999/02/22-rdf-syntax-ns#"
   xmlns:svg="http://www.w3.org/2000/svg"
   xmlns="http://www.w3.org/2000/svg"
   xmlns:sodipodi="http://sodipodi.sourceforge.net/DTD/sodipodi-0.dtd"
   xmlns:inkscape="http://www.inkscape.org/namespaces/inkscape"
   width="744.09448"
   height="1052.3622"
   viewBox="0 0 744.09449 1052.3622"
   id="svg2"
   version="1.1"
   inkscape:version="0.91 r13725"
   sodipodi:docname="rootbd logo.svg">
  <defs
     id="defs4">
    <inkscape:path-effect
       effect="skeletal"
       id="path-effect3524"
       is_visible="true"
       pattern="M 0,0 1,0"
       copytype="single_stretched"
       prop_scale="1"
       scale_y_rel="false"
       spacing="0"
       normal_offset="0"
       tang_offset="0"
       prop_units="false"
       vertical_pattern="false"
       fuse_tolerance="0" />
    <inkscape:path-effect
       effect="skeletal"
       id="path-effect3520"
       is_visible="true"
       pattern="M 0,0 1,0"
       copytype="single_stretched"
       prop_scale="1"
       scale_y_rel="false"
       spacing="0"
       normal_offset="0"
       tang_offset="0"
       prop_units="false"
       vertical_pattern="false"
       fuse_tolerance="0" />
    <inkscape:path-effect
       effect="skeletal"
       id="path-effect3516"
       is_visible="true"
       pattern="M 0,0 1,0"
       copytype="single_stretched"
       prop_scale="1"
       scale_y_rel="false"
       spacing="0"
       normal_offset="0"
       tang_offset="0"
       prop_units="false"
       vertical_pattern="false"
       fuse_tolerance="0" />
    <inkscape:path-effect
       effect="skeletal"
       id="path-effect3512"
       is_visible="true"
       pattern="M 0,0 1,0"
       copytype="single_stretched"
       prop_scale="1"
       scale_y_rel="false"
       spacing="0"
       normal_offset="0"
       tang_offset="0"
       prop_units="false"
       vertical_pattern="false"
       fuse_tolerance="0" />
    <inkscape:path-effect
       effect="skeletal"
       id="path-effect3508"
       is_visible="true"
       pattern="M 0,0 1,0"
       copytype="single_stretched"
       prop_scale="1"
       scale_y_rel="false"
       spacing="0"
       normal_offset="0"
       tang_offset="0"
       prop_units="false"
       vertical_pattern="false"
       fuse_tolerance="0" />
    <inkscape:path-effect
       effect="skeletal"
       id="path-effect3504"
       is_visible="true"
       pattern="M 0,0 1,0"
       copytype="single_stretched"
       prop_scale="1"
       scale_y_rel="false"
       spacing="0"
       normal_offset="0"
       tang_offset="0"
       prop_units="false"
       vertical_pattern="false"
       fuse_tolerance="0" />
    <inkscape:path-effect
       effect="skeletal"
       id="path-effect3500"
       is_visible="true"
       pattern="M 0,0 1,0"
       copytype="single_stretched"
       prop_scale="1"
       scale_y_rel="false"
       spacing="0"
       normal_offset="0"
       tang_offset="0"
       prop_units="false"
       vertical_pattern="false"
       fuse_tolerance="0" />
    <inkscape:path-effect
       effect="skeletal"
       id="path-effect3496"
       is_visible="true"
       pattern="m 1.8977531,-1.3060194 1,0"
       copytype="single_stretched"
       prop_scale="1"
       scale_y_rel="false"
       spacing="0"
       normal_offset="0"
       tang_offset="0"
       prop_units="false"
       vertical_pattern="false"
       fuse_tolerance="0" />
    <inkscape:path-effect
       effect="skeletal"
       id="path-effect3492"
       is_visible="true"
       pattern="M 0,0 1,0"
       copytype="single_stretched"
       prop_scale="1"
       scale_y_rel="false"
       spacing="0"
       normal_offset="0"
       tang_offset="0"
       prop_units="false"
       vertical_pattern="false"
       fuse_tolerance="0" />
    <inkscape:path-effect
       effect="skeletal"
       id="path-effect3488"
       is_visible="true"
       pattern="M 0,0 1,0"
       copytype="single_stretched"
       prop_scale="1"
       scale_y_rel="false"
       spacing="0"
       normal_offset="0"
       tang_offset="0"
       prop_units="false"
       vertical_pattern="false"
       fuse_tolerance="0" />
    <inkscape:path-effect
       effect="skeletal"
       id="path-effect3484"
       is_visible="true"
       pattern="m -2.6120388,0 1,0"
       copytype="single_stretched"
       prop_scale="1"
       scale_y_rel="false"
       spacing="0"
       normal_offset="0"
       tang_offset="0"
       prop_units="false"
       vertical_pattern="false"
       fuse_tolerance="0" />
    <inkscape:path-effect
       effect="skeletal"
       id="path-effect3480"
       is_visible="true"
       pattern="M 0,0 1,0"
       copytype="single_stretched"
       prop_scale="1"
       scale_y_rel="false"
       spacing="0"
       normal_offset="0"
       tang_offset="0"
       prop_units="false"
       vertical_pattern="false"
       fuse_tolerance="0" />
    <inkscape:path-effect
       effect="skeletal"
       id="path-effect3476"
       is_visible="true"
       pattern="M 0,0 1,0"
       copytype="single_stretched"
       prop_scale="1"
       scale_y_rel="false"
       spacing="0"
       normal_offset="0"
       tang_offset="0"
       prop_units="false"
       vertical_pattern="false"
       fuse_tolerance="0" />
    <inkscape:path-effect
       effect="skeletal"
       id="path-effect3472"
       is_visible="true"
       pattern="M 0,0 1,0"
       copytype="single_stretched"
       prop_scale="1"
       scale_y_rel="false"
       spacing="0"
       normal_offset="0"
       tang_offset="0"
       prop_units="false"
       vertical_pattern="false"
       fuse_tolerance="0" />
    <inkscape:path-effect
       effect="skeletal"
       id="path-effect3468"
       is_visible="true"
       pattern="M 0,0 1,0"
       copytype="single_stretched"
       prop_scale="1"
       scale_y_rel="false"
       spacing="0"
       normal_offset="0"
       tang_offset="0"
       prop_units="false"
       vertical_pattern="false"
       fuse_tolerance="0" />
    <inkscape:path-effect
       effect="skeletal"
       id="path-effect3464"
       is_visible="true"
       pattern="M 0,0 1,0"
       copytype="single_stretched"
       prop_scale="1"
       scale_y_rel="false"
       spacing="0"
       normal_offset="0"
       tang_offset="0"
       prop_units="false"
       vertical_pattern="false"
       fuse_tolerance="0" />
    <inkscape:path-effect
       effect="skeletal"
       id="path-effect3460"
       is_visible="true"
       pattern="m -20.203051,22.223356 1,0"
       copytype="single_stretched"
       prop_scale="1"
       scale_y_rel="false"
       spacing="0"
       normal_offset="0"
       tang_offset="0"
       prop_units="false"
       vertical_pattern="false"
       fuse_tolerance="0" />
    <inkscape:path-effect
       effect="skeletal"
       id="path-effect3456"
       is_visible="true"
       pattern="M 0,0 1,0"
       copytype="single_stretched"
       prop_scale="1"
       scale_y_rel="false"
       spacing="0"
       normal_offset="0"
       tang_offset="0"
       prop_units="false"
       vertical_pattern="false"
       fuse_tolerance="0" />
    <inkscape:path-effect
       effect="skeletal"
       id="path-effect3452"
       is_visible="true"
       pattern="M 0,0 1,0"
       copytype="single_stretched"
       prop_scale="1"
       scale_y_rel="false"
       spacing="0"
       normal_offset="0"
       tang_offset="0"
       prop_units="false"
       vertical_pattern="false"
       fuse_tolerance="0" />
    <inkscape:path-effect
       effect="skeletal"
       id="path-effect3408"
       is_visible="true"
       pattern="M 0,0 1,0"
       copytype="single_stretched"
       prop_scale="1"
       scale_y_rel="false"
       spacing="0"
       normal_offset="0"
       tang_offset="0"
       prop_units="false"
       vertical_pattern="false"
       fuse_tolerance="0" />
    <inkscape:path-effect
       effect="skeletal"
       id="path-effect3358"
       is_visible="true"
       pattern="m 0,-18.182746 1,0"
       copytype="single_stretched"
       prop_scale="1"
       scale_y_rel="false"
       spacing="0"
       normal_offset="0"
       tang_offset="0"
       prop_units="false"
       vertical_pattern="false"
       fuse_tolerance="0" />
    <inkscape:path-effect
       effect="skeletal"
       id="path-effect3354"
       is_visible="true"
       pattern="m 0,-18.182746 1,0"
       copytype="single_stretched"
       prop_scale="1"
       scale_y_rel="false"
       spacing="0"
       normal_offset="0"
       tang_offset="0"
       prop_units="false"
       vertical_pattern="false"
       fuse_tolerance="0" />
    <inkscape:path-effect
       effect="skeletal"
       id="path-effect3350"
       is_visible="true"
       pattern="m 0,-18.182746 1,0"
       copytype="single_stretched"
       prop_scale="1"
       scale_y_rel="false"
       spacing="0"
       normal_offset="0"
       tang_offset="0"
       prop_units="false"
       vertical_pattern="false"
       fuse_tolerance="0" />
  </defs>
  <sodipodi:namedview
     id="base"
     pagecolor="#ececec"
     bordercolor="#666666"
     borderopacity="1.0"
     inkscape:pageopacity="0"
     inkscape:pageshadow="2"
     inkscape:zoom="0.35"
     inkscape:cx="-760.81923"
     inkscape:cy="14.243265"
     inkscape:document-units="px"
     inkscape:current-layer="layer1"
     showgrid="false"
     units="px"
     showborder="false"
     inkscape:window-width="1280"
     inkscape:window-height="961"
     inkscape:window-x="-8"
     inkscape:window-y="-8"
     inkscape:window-maximized="1" />
  <metadata
     id="metadata7">
    <rdf:RDF>
      <cc:Work
         rdf:about="">
        <dc:format>image/svg+xml</dc:format>
        <dc:type
           rdf:resource="http://purl.org/dc/dcmitype/StillImage" />
        <dc:title></dc:title>
      </cc:Work>
    </rdf:RDF>
  </metadata>
  <g
     inkscape:label="Layer 1"
     inkscape:groupmode="layer"
     id="layer1">
    <path
       style="fill:#502d16;fill-rule:evenodd;stroke:#000000;stroke-width:1px;stroke-linecap:butt;stroke-linejoin:miter;stroke-opacity:1"
       d="m 29.581582,1015.2193 40,0 C 53.409187,877.2868 50.342177,857.30277 41.010153,780.93361 Z"
       id="path3336"
       inkscape:connector-curvature="0"
       sodipodi:nodetypes="cccc" />
    <path
       style="fill:#502d16;fill-rule:evenodd;stroke:none;stroke-width:1px;stroke-linecap:butt;stroke-linejoin:miter;stroke-opacity:1"
       d="m 57.142857,945.608 c -1.904762,-9.52381 -3.809524,-19.04761 -5.714286,-28.57142 12.380951,-37.14286 24.761902,-74.28571 37.142853,-111.42857 2e-6,0 3e-6,-1e-5 5e-6,-1e-5 C 80,856.08419 71.428572,906.56039 62.857143,957.03658 60.952381,953.22705 59.047619,949.41753 57.142857,945.608 Z"
       id="path3348"
       inkscape:path-effect="#path-effect3350"
       inkscape:original-d="M 57.142857,945.608 51.428571,917.03658 88.571429,805.608 62.857143,957.03658 Z"
       inkscape:connector-curvature="0" />
    <path
       style="fill:#502d16;fill-rule:evenodd;stroke:none;stroke-width:1px;stroke-linecap:butt;stroke-linejoin:miter;stroke-opacity:1"
       d="m 34.285714,971.32229 c 0.952381,-9.52381 1.904762,-19.04762 2.857143,-28.57143 -3e-6,0 -5e-6,-10e-6 -8e-6,-10e-6 -20.952377,-33.33333 -41.904754,-66.66666 -62.857131,-99.99998 -10e-7,-10e-6 -3e-6,-10e-6 -4e-6,-10e-6 20,42.85714 40,85.71429 60,128.57143 z"
       id="path3352"
       inkscape:path-effect="#path-effect3354"
       inkscape:original-d="m 34.285714,971.32229 2.857143,-28.57143 -62.857143,-100 z"
       inkscape:connector-curvature="0" />
    <path
       style="fill:#502d16;fill-rule:evenodd;stroke:none;stroke-width:1px;stroke-linecap:butt;stroke-linejoin:miter;stroke-opacity:1"
       d="m 40,874.17943 c 0.952381,-8.57143 1.904762,-17.14285 2.857143,-25.71428 -17.142855,-24.7619 -34.2857097,-49.52381 -51.4285645,-74.28571 -2.4e-6,0 -4.7e-6,-10e-6 -7.1e-6,-10e-6 C 6.6666666,811.32229 21.904762,848.46514 37.142857,885.608 38.095238,881.79848 39.047619,877.98895 40,874.17943 Z"
       id="path3356"
       inkscape:path-effect="#path-effect3358"
       inkscape:original-d="M 40,874.17943 42.857143,848.46515 -8.5714286,774.17943 37.142857,885.608 Z"
       inkscape:connector-curvature="0" />
    <ellipse
       style="fill:#008000"
       id="path3362"
       cx="-282.89047"
       cy="859.96027"
       rx="22.857143"
       ry="12.857142"
       transform="matrix(0.91418365,-0.4053002,0.4053002,0.91418365,0,0)" />
    <ellipse
       ry="12.857142"
       rx="22.857143"
       cy="810.90222"
       cx="422.74246"
       id="ellipse3364"
       style="fill:#008000"
       inkscape:transform-center-x="82.024595"
       inkscape:transform-center-y="-40.488438"
       transform="matrix(0.88244335,0.47041867,-0.47041867,0.88244335,0,0)" />
    <ellipse
       ry="12.857142"
       rx="22.857143"
       cy="576.99426"
       cx="616.7572"
       id="ellipse3366"
       style="fill:#008000"
       inkscape:transform-center-x="-72.916268"
       inkscape:transform-center-y="-6.1902495"
       transform="matrix(0.68851,0.72522685,-0.72522685,0.68851,0,0)" />
    <ellipse
       ry="12.857142"
       rx="22.857143"
       cy="69.198624"
       cx="-757.93683"
       id="ellipse3368"
       style="fill:#008000"
       transform="matrix(0.03669187,-0.99932663,0.99932663,0.03669187,0,0)" />
    <ellipse
       style="fill:#008000"
       id="ellipse3370"
       cx="-372.99884"
       cy="786.1366"
       rx="22.857143"
       ry="12.857142"
       transform="matrix(0.85178999,-0.5238834,0.5238834,0.85178999,0,0)" />
    <ellipse
       ry="12.857142"
       rx="22.857143"
       cy="610.59845"
       cx="-529.33813"
       id="ellipse3372"
       style="fill:#008000"
       transform="matrix(0.70264804,-0.71153759,0.71153759,0.70264804,0,0)" />
    <ellipse
       style="fill:#008000"
       id="ellipse3374"
       cx="318.55399"
       cy="815.52979"
       rx="22.857143"
       ry="12.857142"
       transform="matrix(0.91954047,0.39299533,-0.39299533,0.91954047,0,0)" />
    <ellipse
       ry="10"
       rx="17.142859"
       cy="-680.19867"
       cx="-426.22458"
       id="ellipse3376"
       style="fill:#008000"
       transform="matrix(-0.84188648,-0.53965467,0.53965467,-0.84188648,0,0)" />
    <ellipse
       ry="11.215133"
       rx="17.641115"
       cy="241.7634"
       cx="-901.42584"
       id="ellipse3384"
       style="fill:#008000"
       transform="matrix(0.24624161,-0.96920848,0.99774574,0.06710761,0,0)"
       inkscape:transform-center-x="-2.5253814"
       inkscape:transform-center-y="-1.0101526" />
    <ellipse
       style="fill:#008000"
       id="ellipse3386"
       cx="-436.12503"
       cy="718.80731"
       rx="17.142859"
       ry="10"
       transform="matrix(0.79026859,-0.61276061,0.61276061,0.79026859,0,0)" />
    <ellipse
       style="fill:#008000"
       id="ellipse3388"
       cx="-829.34235"
       cy="-202.37234"
       rx="17.142859"
       ry="10"
       transform="matrix(-0.30719036,-0.95164809,0.95164809,-0.30719036,0,0)" />
    <ellipse
       ry="24.285715"
       rx="10.000002"
       cy="756.12543"
       cx="-172.89626"
       id="ellipse3390"
       style="fill:#008000"
       transform="matrix(0.9727455,-0.23187537,0.23187537,0.9727455,0,0)" />
    <ellipse
       style="fill:#008000"
       id="ellipse3392"
       cx="-780.60706"
       cy="195.38045"
       rx="17.142859"
       ry="10"
       transform="matrix(0.20820628,-0.97808494,0.97808494,0.20820628,0,0)" />
    <path
       style="fill:#000000;fill-rule:evenodd;stroke:none;stroke-width:1px;stroke-linecap:butt;stroke-linejoin:miter;stroke-opacity:1"
       d="m 2.0203051,1104.8902 c 2.69374,-18.1828 5.3874799,-36.3655 8.0812199,-54.5483"
       id="path3458"
       inkscape:path-effect="#path-effect3460"
       inkscape:original-d="m 2.0203051,1104.8902 8.0812199,-54.5483"
       inkscape:connector-curvature="0" />
    <path
       style="fill:#502d16;fill-rule:evenodd;stroke:none;stroke-width:1px;stroke-linecap:butt;stroke-linejoin:miter;stroke-opacity:1"
       d="m 29.712842,1011.9561 c 4.714045,0.6734 9.428091,1.3469 14.142136,2.0203 -1e-6,0 -2e-6,0 -2e-6,0 -6.734349,16.8359 -13.468699,33.6717 -20.203048,50.5076 0,0 -1e-6,0 -1e-6,0 2.020305,-17.5093 4.04061,-35.0186 6.060915,-52.5279 z"
       id="path3482"
       inkscape:path-effect="#path-effect3484"
       inkscape:original-d="m 29.712842,1011.9561 14.142136,2.0203 -20.203051,50.5076 z"
       inkscape:connector-curvature="0" />
    <path
       style="fill:#502d16;fill-rule:evenodd;stroke:none;stroke-width:1px;stroke-linecap:butt;stroke-linejoin:miter;stroke-opacity:1"
       d="m 42.426407,1013.9764 c 5.38748,0 10.774961,0 16.162441,0 0,0 0,0 0,0 -1.346871,17.5093 -2.693741,35.0186 -4.040611,52.5279 -4.04061,-17.5093 -8.08122,-35.0186 -12.12183,-52.5279 z"
       id="path3490"
       inkscape:path-effect="#path-effect3492"
       inkscape:original-d="m 42.426407,1013.9764 16.162441,0 -4.040611,52.5279 z"
       inkscape:connector-curvature="0" />
    <path
       style="fill:#502d16;fill-rule:evenodd;stroke:none;stroke-width:1px;stroke-linecap:butt;stroke-linejoin:miter;stroke-opacity:1"
       d="m 56.44599,1014.6907 c 4.714045,0 9.428091,0 14.142136,0 10e-7,0 10e-7,0 2e-6,0 6.060915,14.8156 12.121829,29.6311 18.182744,44.4467 -10.774961,-14.8156 -21.549921,-29.6311 -32.324882,-44.4467 z"
       id="path3494"
       inkscape:path-effect="#path-effect3496"
       inkscape:original-d="m 56.44599,1014.6907 14.142136,0 18.182746,44.4467 z"
       inkscape:connector-curvature="0" />
    <path
       style="fill:#502d16;fill-rule:evenodd;stroke:none;stroke-width:1px;stroke-linecap:butt;stroke-linejoin:miter;stroke-opacity:1"
       d="m 28.571429,1043.0765 c 1.666667,-2.1429 3.333333,-4.2857 5,-6.4286 0,0 10e-7,0 10e-7,0 2.380952,7.381 4.761904,14.7619 7.142856,22.1429 0,0 0,0 0,0 -4.047619,-5.2381 -8.095238,-10.4762 -12.142857,-15.7143 z"
       id="path3498"
       inkscape:path-effect="#path-effect3500"
       inkscape:original-d="m 28.571429,1043.0765 5,-6.4286 7.142857,22.1429 z"
       inkscape:connector-curvature="0" />
    <path
       style="fill:#502d16;fill-rule:evenodd;stroke:none;stroke-width:1px;stroke-linecap:butt;stroke-linejoin:miter;stroke-opacity:1"
       d="m 30,1022.3622 c -0.238095,2.8571 -0.476191,5.7143 -0.714286,8.5714 -5.238094,4.2857 -10.476189,8.5715 -15.714283,12.8572 -1e-6,0 -1e-6,0 -2e-6,0 5.47619,-7.1429 10.952381,-14.2857 16.428571,-21.4286 z"
       id="path3502"
       inkscape:path-effect="#path-effect3504"
       inkscape:original-d="m 30,1022.3622 -0.714286,8.5714 -15.714285,12.8572 z"
       inkscape:connector-curvature="0" />
    <path
       style="fill:#502d16;fill-rule:evenodd;stroke:none;stroke-width:1px;stroke-linecap:butt;stroke-linejoin:miter;stroke-opacity:1"
       d="m 46.428571,1032.3622 c 1.428572,3.0952 2.857143,6.1905 4.285715,9.2857 0,0 -1e-6,0 -1e-6,0 -3.095238,4.5238 -6.190476,9.0476 -9.285713,13.5714 -1e-6,0 -1e-6,0 -1e-6,0 1.666667,-7.619 3.333333,-15.2381 5,-22.8571 z"
       id="path3506"
       inkscape:path-effect="#path-effect3508"
       inkscape:original-d="m 46.428571,1032.3622 4.285715,9.2857 -9.285715,13.5714 z"
       inkscape:connector-curvature="0" />
    <path
       style="fill:#502d16;fill-rule:evenodd;stroke:none;stroke-width:1px;stroke-linecap:butt;stroke-linejoin:miter;stroke-opacity:1"
       d="m 53.571429,1024.505 c 0,4.0476 0,8.0953 0,12.1429 10e-7,0 10e-7,0 2e-6,0 3.809523,6.1905 7.619045,12.3809 11.428568,18.5714 0,0 10e-7,0 10e-7,0 -3.809524,-10.2381 -7.619047,-20.4762 -11.428571,-30.7143 z"
       id="path3510"
       inkscape:path-effect="#path-effect3512"
       inkscape:original-d="m 53.571429,1024.505 0,12.1429 L 65,1055.2193 Z"
       inkscape:connector-curvature="0" />
    <path
       style="fill:#502d16;fill-rule:evenodd;stroke:none;stroke-width:1px;stroke-linecap:butt;stroke-linejoin:miter;stroke-opacity:1"
       d="m 67.142857,1023.0765 c 2.619048,3.5714 5.238095,7.1429 7.857143,10.7143 0,0 0,0 0,0 -0.952381,7.619 -1.904762,15.2381 -2.857143,22.8571 0,0 0,0 0,0 -1.666667,-11.1905 -3.333333,-22.3809 -5,-33.5714 z"
       id="path3514"
       inkscape:path-effect="#path-effect3516"
       inkscape:original-d="M 67.142857,1023.0765 75,1033.7908 l -2.857143,22.8571 z"
       inkscape:connector-curvature="0" />
    <path
       style="fill:#502d16;fill-rule:evenodd;stroke:none;stroke-width:1px;stroke-linecap:butt;stroke-linejoin:miter;stroke-opacity:1"
       d="m 67.857143,1020.2193 c 2.380952,3.3333 4.761905,6.6667 7.142857,10 10e-7,0 2e-6,0 2e-6,0 4.761904,3.8095 9.523807,7.6191 14.285711,11.4286 0,0 10e-7,0 10e-7,0 C 82.142857,1034.505 75,1027.3622 67.857143,1020.2193 Z"
       id="path3518"
       inkscape:path-effect="#path-effect3520"
       inkscape:original-d="m 67.857143,1020.2193 7.142857,10 14.285714,11.4286 z"
       inkscape:connector-curvature="0" />
  </g>
</svg>
